<svg xmlns="http://www.w3.org/2000/svg" viewBox="0 0 100 100">
  <defs>
    <linearGradient id="bg" x1="0" y1="0" x2="0" y2="1">
      <stop offset="0" stop-color="#aee3ff"/>
      <stop offset="1" stop-color="#4aa3e0"/>
    </linearGradient>
  </defs>
  <rect width="100" height="100" rx="22" fill="url(#bg)"/>
  <circle cx="50" cy="48" r="30" fill="#5cb8f0" stroke="#fff" stroke-width="3"/>
  <path d="M32 40 q6 -10 16 -8 q4 1 3 6 q-1 4 -6 4 q-6 0 -7 5 q-1 5 -6 3 q-4 -3 0 -10z" fill="#66bb6a"/>
  <path d="M58 32 q10 2 14 10 q2 5 -3 6 q-5 1 -7 -3 q-2 -5 -7 -5 q-4 -1 -2 -5 q2 -4 5 -3z" fill="#66bb6a"/>
  <path d="M46 56 q8 -2 12 4 q3 5 -1 9 q-4 4 -9 2 q-6 -2 -6 -8 q0 -5 4 -7z" fill="#66bb6a"/>
  <text x="50" y="92" font-size="13" text-anchor="middle" font-family="sans-serif" font-weight="bold" fill="#fff">🧩</text>
</svg>
